<?xml version="1.0" encoding="UTF-8" standalone="no"?>
<svg xmlns:cc="http://creativecommons.org/ns#" xmlns:dc="http://purl.org/dc/elements/1.1/"
    xmlns:inkscape="http://www.inkscape.org/namespaces/inkscape"
    xmlns:rdf="http://www.w3.org/1999/02/22-rdf-syntax-ns#"
    xmlns:sodipodi="http://sodipodi.sourceforge.net/DTD/sodipodi-0.dtd" height="16" id="svg4"
    version="1" width="16" xmlns="http://www.w3.org/2000/svg"
    inkscape:export-filename="C:\DEV\src\Android\Nextcloud\favourites\src\main\res\drawable-mdpi\ic_list_empty_image.png"
    inkscape:export-xdpi="432" inkscape:export-ydpi="432" inkscape:version="0.91 r13725"
    sodipodi:docname="ic_list_empty_image.svg">
    <metadata id="metadata10">
        <rdf:RDF>
            <cc:Work rdf:about="">
                <dc:format>image/svg+xml</dc:format>
                <dc:type rdf:resource="http://purl.org/dc/dcmitype/StillImage" />
            </cc:Work>
        </rdf:RDF>
    </metadata>
    <defs id="defs8" />
    <sodipodi:namedview bordercolor="#666666" borderopacity="1" gridtolerance="10"
        guidetolerance="10" id="namedview6" objecttolerance="10" pagecolor="#ffffff"
        showgrid="false" inkscape:current-layer="svg4" inkscape:cx="17.694915" inkscape:cy="8"
        inkscape:pageopacity="0" inkscape:pageshadow="2" inkscape:window-height="835"
        inkscape:window-maximized="1" inkscape:window-width="1600" inkscape:window-x="1600"
        inkscape:window-y="0" inkscape:zoom="14.75" />
    <path
        style="block-progression:tb;text-transform:none;text-indent:0;fill:#757575;fill-opacity:1;opacity:1"
        color="#000"
        d="M1.344 2A.445.445 0 0 0 1 2.438v11.124c0 .23.212.44.438.44h13.125a.457.457 0 0 0 .437-.44V2.61c0-.337-.264-.61-.515-.61zM2 3h12v5l-1-1-3 4-3-3-4 4H2zm2.5 1a1.5 1.5 0 1 0 0 3 1.5 1.5 0 0 0 0-3z"
        fill="#969696" id="path2" />
</svg>
