<?xml version="1.0" encoding="UTF-8" standalone="no"?>
<svg xmlns:cc="http://creativecommons.org/ns#" xmlns:dc="http://purl.org/dc/elements/1.1/"
    xmlns:inkscape="http://www.inkscape.org/namespaces/inkscape"
    xmlns:rdf="http://www.w3.org/1999/02/22-rdf-syntax-ns#"
    xmlns:sodipodi="http://sodipodi.sourceforge.net/DTD/sodipodi-0.dtd" style="fill:#000000"
    height="25.6" id="svg2" version="1.1" viewBox="0 0 24 24" width="25.6"
    xmlns="http://www.w3.org/2000/svg"
    inkscape:export-filename="C:\DEV\src\Android\Nextcloud\logoutButton\src\main\res\drawable-mdpi\logout.png"
    inkscape:export-xdpi="90" inkscape:export-ydpi="90" inkscape:version="0.92.1 r15371"
    sodipodi:docname="logout.svg">
    <metadata id="metadata12">
        <rdf:RDF>
            <cc:Work rdf:about="">
                <dc:format>image/svg+xml</dc:format>
                <dc:type rdf:resource="http://purl.org/dc/dcmitype/StillImage" />
            </cc:Work>
        </rdf:RDF>
    </metadata>
    <defs id="defs10" />
    <sodipodi:namedview bordercolor="#666666" borderopacity="1" gridtolerance="10"
        guidetolerance="10" id="namedview8" objecttolerance="10" pagecolor="#ffffff"
        showgrid="false" inkscape:current-layer="svg2" inkscape:cx="-2.7503911"
        inkscape:cy="14.502003" inkscape:pageopacity="0" inkscape:pageshadow="2"
        inkscape:window-height="1005" inkscape:window-maximized="1" inkscape:window-width="1920"
        inkscape:window-x="-9" inkscape:window-y="-9" inkscape:zoom="13.906433" />
    <path style="fill:none" d="M 0,0 H 24 V 24 H 0 Z" id="path4" inkscape:connector-curvature="0" />
    <path style="fill:#757575;fill-opacity:1"
        d="m 10.09,15.59 1.41,1.41 5,-5 -5,-5 -1.41,1.41 2.58,2.59 H 3 v 2 h 9.67 z M 19,3 H 5 C 3.89,3 3,3.9 3,5 V 9 H 5 V 5 H 19 V 19 H 5 V 15 H 3 v 4 c 0,1.1 0.89,2 2,2 h 14 c 1.1,0 2,-0.9 2,-2 V 5 C 21,3.9 20.1,3 19,3 Z"
        id="path6" inkscape:connector-curvature="0" />
</svg>
