<?xml version="1.0" encoding="UTF-8" standalone="no"?>
<svg xmlns:cc="http://creativecommons.org/ns#" xmlns:dc="http://purl.org/dc/elements/1.1/"
    xmlns:inkscape="http://www.inkscape.org/namespaces/inkscape"
    xmlns:rdf="http://www.w3.org/1999/02/22-rdf-syntax-ns#"
    xmlns:sodipodi="http://sodipodi.sourceforge.net/DTD/sodipodi-0.dtd" height="25.6" id="svg2"
    version="1.1" viewBox="0 0 24 24" width="25.6" xmlns="http://www.w3.org/2000/svg"
    inkscape:export-filename="C:\DEV\src\Android\Nextcloud\newSortingLayout\res\drawable-xxxhdpi\ic_modification_asc.png"
    inkscape:export-xdpi="360" inkscape:export-ydpi="360" inkscape:version="0.92.0 r15299"
    sodipodi:docname="modified_asc.svg">
    <metadata id="metadata10">
        <rdf:RDF>
            <cc:Work rdf:about="">
                <dc:format>image/svg+xml</dc:format>
                <dc:type rdf:resource="http://purl.org/dc/dcmitype/StillImage" />
                <dc:title></dc:title>
            </cc:Work>
        </rdf:RDF>
    </metadata>
    <defs id="defs8" />
    <sodipodi:namedview bordercolor="#666666" borderopacity="1" gridtolerance="10"
        guidetolerance="10" id="namedview6" objecttolerance="10" pagecolor="#ffffff"
        showgrid="false" inkscape:current-layer="svg2" inkscape:cx="15.581769"
        inkscape:cy="6.7845462" inkscape:pageopacity="0" inkscape:pageshadow="2"
        inkscape:window-height="1005" inkscape:window-maximized="1" inkscape:window-width="1920"
        inkscape:window-x="-9" inkscape:window-y="-9" inkscape:zoom="22.63" />
    <path style="fill:#757575;fill-opacity:1;stroke-width:1.06666672"
        d="M 11.589844 2.1328125 A 9.4570668 9.4570668 0 0 0 2.1328125 11.589844 C 2.1328125 16.79123 6.3600875 21.048828 11.589844 21.048828 A 9.4570668 9.4570668 0 0 0 13.015625 20.921875 L 13.015625 19.017578 A 7.5656534 7.5656534 0 0 1 11.589844 19.15625 A 7.5656534 7.5656534 0 0 1 4.0253906 11.589844 A 7.5656534 7.5656534 0 0 1 11.589844 4.0253906 A 7.5656534 7.5656534 0 0 1 18.978516 10 L 20.902344 10 A 9.4570668 9.4570668 0 0 0 11.589844 2.1328125 z M 10.644531 6.8632812 L 10.644531 12.535156 L 13.015625 13.957031 L 13.015625 12.392578 L 12.0625 11.826172 L 12.0625 6.8632812 L 10.644531 6.8632812 z "
        id="path4" transform="scale(0.93749999)" />
    <path style="fill:#757575;fill-opacity:1;stroke-width:1.16980636"
        d="m 13.720313,16.930993 h 5.580275 v -1.736354 h -5.580275 m 0,-4.340882 v 1.736354 h 8.370413 v -1.736354 m -8.370413,10.418118 h 2.790138 v -1.736351 h -2.790138 z"
        id="path4-8" inkscape:connector-curvature="0" />
</svg>
