<?xml version="1.0" encoding="UTF-8" standalone="no"?><!DOCTYPE svg PUBLIC "-//W3C//DTD SVG 1.1//EN"
    "http://www.w3.org/Graphics/SVG/1.1/DTD/svg11.dtd">
<svg style="fill-rule:evenodd;clip-rule:evenodd;stroke-linejoin:round;stroke-miterlimit:1.41421;" height="100%" version="1.1" viewBox="0 0 930 650" width="100%"  xmlns="http://www.w3.org/2000/svg" xml:space="preserve">
    <g transform="matrix(1,0,0,1,-75,-170)">
        <g id="what_new_instant_upload">
            <g id="_-Rectangle-" transform="matrix(1,0,0,3.20705,9,-1776.05)">
                <rect style="fill:url(#_Radial1);" height="43.366" width="291.229" x="202.235" y="761.353"/>
            </g>
            <g>
                <rect style="fill:url(#_Linear2);" height="424.509" width="234.511" x="230.594" y="264.037"/>
                <path style="fill:url(#_Radial3);" d="M465.104,688.546L230.594,688.546L230.594,538.764L250.135,538.764L328.306,460.594L386.934,519.222L445.562,441.051L465.104,460.594L465.104,688.546Z"/>
                <path style="fill:url(#_Linear4);" d="M279.451,382.423C263.261,382.423 250.137,395.547 250.137,411.737C250.137,427.927 263.261,441.051 279.451,441.051C295.641,441.051 308.765,427.927 308.765,411.737C308.765,395.547 295.641,382.423 279.451,382.423Z"/>
                <g>
                    <g transform="matrix(0.175283,0,0,0.175283,355.366,244.014)">
                        <path style="fill:url(#_Linear5);" d="M428.378,321.853L432.417,354.54L465.104,358.58L432.417,362.619L428.378,395.306L424.339,362.619L391.652,358.58L424.339,354.54L428.378,321.853Z"/>
                    </g>
                    <g transform="matrix(0.140592,0,0,0.140592,354.045,362.636)">
                        <path style="fill:url(#_Linear6);" d="M428.378,321.853L432.417,354.54L465.104,358.58L432.417,362.619L428.378,395.306L424.339,362.619L391.652,358.58L424.339,354.54L428.378,321.853Z"/>
                    </g>
                    <g transform="matrix(0.168563,0,0,0.168563,252.63,234.114)">
                        <path style="fill:url(#_Linear7);" d="M428.378,321.853L432.417,354.54L465.104,358.58L432.417,362.619L428.378,395.306L424.339,362.619L391.652,358.58L424.339,354.54L428.378,321.853Z"/>
                    </g>
                    <g transform="matrix(0.222605,0,0,0.210514,236.013,267.415)">
                        <path style="fill:url(#_Linear8);" d="M428.378,321.853L432.417,354.54L465.104,358.58L432.417,362.619L428.378,395.306L424.339,362.619L391.652,358.58L424.339,354.54L428.378,321.853Z"/>
                    </g>
                    <g transform="matrix(0.237653,0,0,0.237653,281.118,335.027)">
                        <path style="fill:url(#_Linear9);" d="M428.378,321.853L432.417,354.54L465.104,358.58L432.417,362.619L428.378,395.306L424.339,362.619L391.652,358.58L424.339,354.54L428.378,321.853Z"/>
                    </g>
                    <g transform="matrix(0.237653,0,0,0.237653,167.153,222.014)">
                        <path style="fill:url(#_Linear10);" d="M428.378,321.853L432.417,354.54L465.104,358.58L432.417,362.619L428.378,395.306L424.339,362.619L391.652,358.58L424.339,354.54L428.378,321.853Z"/>
                    </g>
                </g>
            </g>
            <path d="M448.992,191.23C473.578,191.272 493.463,211.183 493.463,235.701L493.463,716.882C493.463,741.426 473.536,761.353 448.992,761.353L246.706,761.353C222.162,761.353 202.235,741.426 202.235,716.882L202.235,235.701C202.235,211.183 222.119,191.272 246.706,191.23L448.992,191.23ZM465.104,264.037L230.594,264.037L230.594,688.546L465.104,688.546L465.104,264.037Z"/>
            <g transform="matrix(0.731297,0,0,0.731297,143.487,345.186)">
                <path style="fill:none;stroke:white;stroke-width:9.57px;" d="M279.451,382.423C263.261,382.423 250.137,395.547 250.137,411.737C250.137,427.927 263.261,441.051 279.451,441.051C295.641,441.051 308.765,427.927 308.765,411.737C308.765,395.547 295.641,382.423 279.451,382.423Z"/>
            </g>
            <g transform="matrix(1,0,0,1,105.39,-106.478)">
                <g transform="matrix(1,0,0,1,32.9856,-32.9856)">
                    <g transform="matrix(9.74822,0,0,9.74822,524.99,301.556)">
                        <path style="fill:white;fill-rule:nonzero;" d="M2.688,4C2.293,4.077 1.993,4.467 2,4.875L2,27.125C2,27.585 2.424,28.001 2.875,28.001L29.125,28.001C29.576,28.001 30,27.584 30,27.126L30,5.22C29.999,4.547 29.471,3.997 28.969,4.001L2.688,4Z"/>
                    </g>
                    <g transform="matrix(1,0,0,1,333.113,-3.62306)">
                        <clipPath id="_clip11">
                            <rect height="196.518" width="234.511" x="230.594" y="362.896"/>
                        </clipPath>
                        <g clip-path="url(#_clip11)">
                            <rect style="fill:url(#_Linear12);" height="424.509" width="234.511" x="230.594" y="264.037"/>
                            <path style="fill:url(#_Radial13);" d="M465.104,688.546L230.594,688.546L230.594,538.764L250.135,538.764L328.306,460.594L386.934,519.222L445.562,441.051L465.104,460.594L465.104,688.546Z"/>
                            <path style="fill:url(#_Linear14);" d="M279.451,382.423C263.261,382.423 250.137,395.547 250.137,411.737C250.137,427.927 263.261,441.051 279.451,441.051C295.641,441.051 308.765,427.927 308.765,411.737C308.765,395.547 295.641,382.423 279.451,382.423Z"/>
                            <g>
                                <g transform="matrix(0.175283,0,0,0.175283,355.366,244.014)">
                                    <path style="fill:url(#_Linear15);" d="M428.378,321.853L432.417,354.54L465.104,358.58L432.417,362.619L428.378,395.306L424.339,362.619L391.652,358.58L424.339,354.54L428.378,321.853Z"/>
                                </g>
                                <g transform="matrix(0.140592,0,0,0.140592,354.045,362.636)">
                                    <path style="fill:url(#_Linear16);" d="M428.378,321.853L432.417,354.54L465.104,358.58L432.417,362.619L428.378,395.306L424.339,362.619L391.652,358.58L424.339,354.54L428.378,321.853Z"/>
                                </g>
                                <g transform="matrix(0.222605,0,0,0.210514,236.013,267.415)">
                                    <path style="fill:url(#_Linear17);" d="M428.378,321.853L432.417,354.54L465.104,358.58L432.417,362.619L428.378,395.306L424.339,362.619L391.652,358.58L424.339,354.54L428.378,321.853Z"/>
                                </g>
                                <g transform="matrix(0.237653,0,0,0.237653,281.118,335.027)">
                                    <path style="fill:url(#_Linear18);" d="M428.378,321.853L432.417,354.54L465.104,358.58L432.417,362.619L428.378,395.306L424.339,362.619L391.652,358.58L424.339,354.54L428.378,321.853Z"/>
                                </g>
                                <g transform="matrix(0.237653,0,0,0.237653,167.153,222.014)">
                                    <path style="fill:url(#_Linear19);" d="M428.378,321.853L432.417,354.54L465.104,358.58L432.417,362.619L428.378,395.306L424.339,362.619L391.652,358.58L424.339,354.54L428.378,321.853Z"/>
                                </g>
                            </g>
                        </g>
                    </g>
                </g>
                <g>
                    <g transform="matrix(9.74822,0,0,9.74822,524.99,301.556)">
                        <path style="fill:white;fill-rule:nonzero;" d="M2.688,4C2.293,4.077 1.993,4.467 2,4.875L2,27.125C2,27.585 2.424,28.001 2.875,28.001L29.125,28.001C29.576,28.001 30,27.584 30,27.126L30,5.22C29.999,4.547 29.471,3.997 28.969,4.001L2.688,4Z"/>
                    </g>
                    <g transform="matrix(1,0,0,1,333.113,-3.62306)">
                        <clipPath id="_clip20">
                            <rect height="196.518" width="234.511" x="230.594" y="362.896"/>
                        </clipPath>
                        <g clip-path="url(#_clip20)">
                            <rect style="fill:url(#_Linear21);" height="424.509" width="234.511" x="230.594" y="264.037"/>
                            <path style="fill:url(#_Radial22);" d="M465.104,688.546L230.594,688.546L230.594,538.764L250.135,538.764L328.306,460.594L386.934,519.222L445.562,441.051L465.104,460.594L465.104,688.546Z"/>
                            <path style="fill:url(#_Linear23);" d="M279.451,382.423C263.261,382.423 250.137,395.547 250.137,411.737C250.137,427.927 263.261,441.051 279.451,441.051C295.641,441.051 308.765,427.927 308.765,411.737C308.765,395.547 295.641,382.423 279.451,382.423Z"/>
                            <g>
                                <g transform="matrix(0.175283,0,0,0.175283,355.366,244.014)">
                                    <path style="fill:url(#_Linear24);" d="M428.378,321.853L432.417,354.54L465.104,358.58L432.417,362.619L428.378,395.306L424.339,362.619L391.652,358.58L424.339,354.54L428.378,321.853Z"/>
                                </g>
                                <g transform="matrix(0.140592,0,0,0.140592,354.045,362.636)">
                                    <path style="fill:url(#_Linear25);" d="M428.378,321.853L432.417,354.54L465.104,358.58L432.417,362.619L428.378,395.306L424.339,362.619L391.652,358.58L424.339,354.54L428.378,321.853Z"/>
                                </g>
                                <g transform="matrix(0.168563,0,0,0.168563,252.63,234.114)">
                                    <path style="fill:url(#_Linear26);" d="M428.378,321.853L432.417,354.54L465.104,358.58L432.417,362.619L428.378,395.306L424.339,362.619L391.652,358.58L424.339,354.54L428.378,321.853Z"/>
                                </g>
                                <g transform="matrix(0.222605,0,0,0.210514,236.013,267.415)">
                                    <path style="fill:url(#_Linear27);" d="M428.378,321.853L432.417,354.54L465.104,358.58L432.417,362.619L428.378,395.306L424.339,362.619L391.652,358.58L424.339,354.54L428.378,321.853Z"/>
                                </g>
                                <g transform="matrix(0.237653,0,0,0.237653,281.118,335.027)">
                                    <path style="fill:url(#_Linear28);" d="M428.378,321.853L432.417,354.54L465.104,358.58L432.417,362.619L428.378,395.306L424.339,362.619L391.652,358.58L424.339,354.54L428.378,321.853Z"/>
                                </g>
                                <g transform="matrix(0.237653,0,0,0.237653,167.153,222.014)">
                                    <path style="fill:url(#_Linear29);" d="M428.378,321.853L432.417,354.54L465.104,358.58L432.417,362.619L428.378,395.306L424.339,362.619L391.652,358.58L424.339,354.54L428.378,321.853Z"/>
                                </g>
                            </g>
                        </g>
                    </g>
                </g>
                <g>
                    <g transform="matrix(9.74822,0,0,9.74822,493.361,333.185)">
                        <path style="fill:white;fill-rule:nonzero;" d="M2.688,4C2.293,4.077 1.993,4.467 2,4.875L2,27.125C2,27.585 2.424,28.001 2.875,28.001L29.125,28.001C29.576,28.001 30,27.584 30,27.126L30,5.22C29.999,4.547 29.471,3.997 28.969,4.001L2.688,4Z"/>
                    </g>
                    <g transform="matrix(1,0,0,1,301.484,28.0059)">
                        <clipPath id="_clip30">
                            <rect height="196.518" width="234.511" x="230.594" y="362.896"/>
                        </clipPath>
                        <g clip-path="url(#_clip30)">
                            <rect style="fill:url(#_Linear31);" height="424.509" width="234.511" x="230.594" y="264.037"/>
                            <path style="fill:url(#_Radial32);" d="M465.104,688.546L230.594,688.546L230.594,538.764L250.135,538.764L328.306,460.594L386.934,519.222L445.562,441.051L465.104,460.594L465.104,688.546Z"/>
                            <path style="fill:url(#_Linear33);" d="M279.451,382.423C263.261,382.423 250.137,395.547 250.137,411.737C250.137,427.927 263.261,441.051 279.451,441.051C295.641,441.051 308.765,427.927 308.765,411.737C308.765,395.547 295.641,382.423 279.451,382.423Z"/>
                            <g>
                                <g transform="matrix(0.175283,0,0,0.175283,355.366,244.014)">
                                    <path style="fill:url(#_Linear34);" d="M428.378,321.853L432.417,354.54L465.104,358.58L432.417,362.619L428.378,395.306L424.339,362.619L391.652,358.58L424.339,354.54L428.378,321.853Z"/>
                                </g>
                                <g transform="matrix(0.140592,0,0,0.140592,354.045,362.636)">
                                    <path style="fill:url(#_Linear35);" d="M428.378,321.853L432.417,354.54L465.104,358.58L432.417,362.619L428.378,395.306L424.339,362.619L391.652,358.58L424.339,354.54L428.378,321.853Z"/>
                                </g>
                                <g transform="matrix(0.168563,0,0,0.168563,252.63,234.114)">
                                    <path style="fill:url(#_Linear36);" d="M428.378,321.853L432.417,354.54L465.104,358.58L432.417,362.619L428.378,395.306L424.339,362.619L391.652,358.58L424.339,354.54L428.378,321.853Z"/>
                                </g>
                                <g transform="matrix(0.222605,0,0,0.210514,236.013,267.415)">
                                    <path style="fill:url(#_Linear37);" d="M428.378,321.853L432.417,354.54L465.104,358.58L432.417,362.619L428.378,395.306L424.339,362.619L391.652,358.58L424.339,354.54L428.378,321.853Z"/>
                                </g>
                                <g transform="matrix(0.237653,0,0,0.237653,281.118,335.027)">
                                    <path style="fill:url(#_Linear38);" d="M428.378,321.853L432.417,354.54L465.104,358.58L432.417,362.619L428.378,395.306L424.339,362.619L391.652,358.58L424.339,354.54L428.378,321.853Z"/>
                                </g>
                                <g transform="matrix(0.237653,0,0,0.237653,167.153,222.014)">
                                    <path style="fill:url(#_Linear39);" d="M428.378,321.853L432.417,354.54L465.104,358.58L432.417,362.619L428.378,395.306L424.339,362.619L391.652,358.58L424.339,354.54L428.378,321.853Z"/>
                                </g>
                            </g>
                        </g>
                    </g>
                </g>
                <g transform="matrix(0.414687,0,0,0.414687,420.251,292.709)">
                    <g transform="matrix(0.844902,0,0,0.844902,149.744,12.4534)">
                        <circle style="fill:rgb(0,212,0);" cx="811.26" cy="269.872" r="108.537"/>
                    </g>
                    <g transform="matrix(-10.6831,0,0,-10.6831,941.452,11440.7)">
                        <path style="fill:white;fill-rule:nonzero;" d="M11.362,1043.8L16.312,1048.75L14.898,1050.16L11.362,1046.63L5.017,1053.01L3.584,1051.58L11.362,1043.8Z"/>
                    </g>
                </g>
            </g>
        </g>
    </g>
    <defs>
        <radialGradient cx="0" cy="0" gradientTransform="matrix(-145.614,4.073e-14,-1.82237e-14,-15.8805,347.849,788.838)" gradientUnits="userSpaceOnUse" id="_Radial1" r="1"><stop style="stop-color:rgb(0,16,43);stop-opacity:0.480776" offset="0%"/><stop style="stop-color:black;stop-opacity:0" offset="100%"/></radialGradient>
        <linearGradient gradientTransform="matrix(-42.6192,-320.496,320.496,-42.6192,347.849,572.965)" gradientUnits="userSpaceOnUse" id="_Linear2" x1="0" x2="1" y1="0" y2="0"><stop style="stop-color:rgb(0,114,167);stop-opacity:1" offset="0%"/><stop style="stop-color:rgb(8,0,101);stop-opacity:1" offset="100%"/></linearGradient>
        <radialGradient cx="0" cy="0" gradientTransform="matrix(7.50764,112.339,-276.186,18.4576,292.027,425.187)" gradientUnits="userSpaceOnUse" id="_Radial3" r="1"><stop style="stop-color:rgb(0,31,53);stop-opacity:1" offset="0%"/><stop style="stop-color:rgb(52,52,92);stop-opacity:1" offset="100%"/></radialGradient>
        <linearGradient gradientTransform="matrix(4.36862,55.7957,-55.7957,4.36862,273.59,385.426)" gradientUnits="userSpaceOnUse" id="_Linear4" x1="0" x2="1" y1="0" y2="0"><stop style="stop-color:rgb(220,234,255);stop-opacity:1" offset="0%"/><stop style="stop-color:rgb(255,255,235);stop-opacity:1" offset="100%"/></linearGradient>
        <linearGradient gradientTransform="matrix(-13.3491,-55.4555,100.385,-7.37441,428.378,375.307)" gradientUnits="userSpaceOnUse" id="_Linear5" x1="0" x2="1" y1="0" y2="0"><stop style="stop-color:rgb(220,234,255);stop-opacity:1" offset="0%"/><stop style="stop-color:rgb(255,255,235);stop-opacity:1" offset="100%"/></linearGradient>
        <linearGradient gradientTransform="matrix(-13.3491,-55.4555,100.385,-7.37441,428.378,375.307)" gradientUnits="userSpaceOnUse" id="_Linear6" x1="0" x2="1" y1="0" y2="0"><stop style="stop-color:rgb(220,234,255);stop-opacity:1" offset="0%"/><stop style="stop-color:rgb(255,255,235);stop-opacity:1" offset="100%"/></linearGradient>
        <linearGradient gradientTransform="matrix(-13.3491,-55.4555,100.385,-7.37441,428.378,375.307)" gradientUnits="userSpaceOnUse" id="_Linear7" x1="0" x2="1" y1="0" y2="0"><stop style="stop-color:rgb(220,234,255);stop-opacity:1" offset="0%"/><stop style="stop-color:rgb(255,255,235);stop-opacity:1" offset="100%"/></linearGradient>
        <linearGradient gradientTransform="matrix(-13.3491,-55.4555,100.385,-7.37441,428.378,375.307)" gradientUnits="userSpaceOnUse" id="_Linear8" x1="0" x2="1" y1="0" y2="0"><stop style="stop-color:rgb(220,234,255);stop-opacity:1" offset="0%"/><stop style="stop-color:rgb(255,255,235);stop-opacity:1" offset="100%"/></linearGradient>
        <linearGradient gradientTransform="matrix(-13.3491,-55.4555,100.385,-7.37441,428.378,375.307)" gradientUnits="userSpaceOnUse" id="_Linear9" x1="0" x2="1" y1="0" y2="0"><stop style="stop-color:rgb(220,234,255);stop-opacity:1" offset="0%"/><stop style="stop-color:rgb(255,255,235);stop-opacity:1" offset="100%"/></linearGradient>
        <linearGradient gradientTransform="matrix(-13.3491,-55.4555,100.385,-7.37441,428.378,375.307)" gradientUnits="userSpaceOnUse" id="_Linear10" x1="0" x2="1" y1="0" y2="0"><stop style="stop-color:rgb(220,234,255);stop-opacity:1" offset="0%"/><stop style="stop-color:rgb(255,255,235);stop-opacity:1" offset="100%"/></linearGradient>
        <linearGradient gradientTransform="matrix(-42.6192,-320.496,320.496,-42.6192,347.849,572.965)" gradientUnits="userSpaceOnUse" id="_Linear12" x1="0" x2="1" y1="0" y2="0"><stop style="stop-color:rgb(0,114,167);stop-opacity:1" offset="0%"/><stop style="stop-color:rgb(8,0,101);stop-opacity:1" offset="100%"/></linearGradient>
        <radialGradient cx="0" cy="0" gradientTransform="matrix(7.50764,112.339,-276.186,18.4576,292.027,425.187)" gradientUnits="userSpaceOnUse" id="_Radial13" r="1"><stop style="stop-color:rgb(0,31,53);stop-opacity:1" offset="0%"/><stop style="stop-color:rgb(52,52,92);stop-opacity:1" offset="100%"/></radialGradient>
        <linearGradient gradientTransform="matrix(4.36862,55.7957,-55.7957,4.36862,273.59,385.426)" gradientUnits="userSpaceOnUse" id="_Linear14" x1="0" x2="1" y1="0" y2="0"><stop style="stop-color:rgb(220,234,255);stop-opacity:1" offset="0%"/><stop style="stop-color:rgb(255,255,235);stop-opacity:1" offset="100%"/></linearGradient>
        <linearGradient gradientTransform="matrix(-13.3491,-55.4555,100.385,-7.37441,428.378,375.307)" gradientUnits="userSpaceOnUse" id="_Linear15" x1="0" x2="1" y1="0" y2="0"><stop style="stop-color:rgb(220,234,255);stop-opacity:1" offset="0%"/><stop style="stop-color:rgb(255,255,235);stop-opacity:1" offset="100%"/></linearGradient>
        <linearGradient gradientTransform="matrix(-13.3491,-55.4555,100.385,-7.37441,428.378,375.307)" gradientUnits="userSpaceOnUse" id="_Linear16" x1="0" x2="1" y1="0" y2="0"><stop style="stop-color:rgb(220,234,255);stop-opacity:1" offset="0%"/><stop style="stop-color:rgb(255,255,235);stop-opacity:1" offset="100%"/></linearGradient>
        <linearGradient gradientTransform="matrix(-13.3491,-55.4555,100.385,-7.37441,428.378,375.307)" gradientUnits="userSpaceOnUse" id="_Linear17" x1="0" x2="1" y1="0" y2="0"><stop style="stop-color:rgb(220,234,255);stop-opacity:1" offset="0%"/><stop style="stop-color:rgb(255,255,235);stop-opacity:1" offset="100%"/></linearGradient>
        <linearGradient gradientTransform="matrix(-13.3491,-55.4555,100.385,-7.37441,428.378,375.307)" gradientUnits="userSpaceOnUse" id="_Linear18" x1="0" x2="1" y1="0" y2="0"><stop style="stop-color:rgb(220,234,255);stop-opacity:1" offset="0%"/><stop style="stop-color:rgb(255,255,235);stop-opacity:1" offset="100%"/></linearGradient>
        <linearGradient gradientTransform="matrix(-13.3491,-55.4555,100.385,-7.37441,428.378,375.307)" gradientUnits="userSpaceOnUse" id="_Linear19" x1="0" x2="1" y1="0" y2="0"><stop style="stop-color:rgb(220,234,255);stop-opacity:1" offset="0%"/><stop style="stop-color:rgb(255,255,235);stop-opacity:1" offset="100%"/></linearGradient>
        <linearGradient gradientTransform="matrix(-42.6192,-320.496,320.496,-42.6192,347.849,572.965)" gradientUnits="userSpaceOnUse" id="_Linear21" x1="0" x2="1" y1="0" y2="0"><stop style="stop-color:rgb(0,114,167);stop-opacity:1" offset="0%"/><stop style="stop-color:rgb(8,0,101);stop-opacity:1" offset="100%"/></linearGradient>
        <radialGradient cx="0" cy="0" gradientTransform="matrix(7.50764,112.339,-276.186,18.4576,292.027,425.187)" gradientUnits="userSpaceOnUse" id="_Radial22" r="1"><stop style="stop-color:rgb(0,31,53);stop-opacity:1" offset="0%"/><stop style="stop-color:rgb(52,52,92);stop-opacity:1" offset="100%"/></radialGradient>
        <linearGradient gradientTransform="matrix(4.36862,55.7957,-55.7957,4.36862,273.59,385.426)" gradientUnits="userSpaceOnUse" id="_Linear23" x1="0" x2="1" y1="0" y2="0"><stop style="stop-color:rgb(220,234,255);stop-opacity:1" offset="0%"/><stop style="stop-color:rgb(255,255,235);stop-opacity:1" offset="100%"/></linearGradient>
        <linearGradient gradientTransform="matrix(-13.3491,-55.4555,100.385,-7.37441,428.378,375.307)" gradientUnits="userSpaceOnUse" id="_Linear24" x1="0" x2="1" y1="0" y2="0"><stop style="stop-color:rgb(220,234,255);stop-opacity:1" offset="0%"/><stop style="stop-color:rgb(255,255,235);stop-opacity:1" offset="100%"/></linearGradient>
        <linearGradient gradientTransform="matrix(-13.3491,-55.4555,100.385,-7.37441,428.378,375.307)" gradientUnits="userSpaceOnUse" id="_Linear25" x1="0" x2="1" y1="0" y2="0"><stop style="stop-color:rgb(220,234,255);stop-opacity:1" offset="0%"/><stop style="stop-color:rgb(255,255,235);stop-opacity:1" offset="100%"/></linearGradient>
        <linearGradient gradientTransform="matrix(-13.3491,-55.4555,100.385,-7.37441,428.378,375.307)" gradientUnits="userSpaceOnUse" id="_Linear26" x1="0" x2="1" y1="0" y2="0"><stop style="stop-color:rgb(220,234,255);stop-opacity:1" offset="0%"/><stop style="stop-color:rgb(255,255,235);stop-opacity:1" offset="100%"/></linearGradient>
        <linearGradient gradientTransform="matrix(-13.3491,-55.4555,100.385,-7.37441,428.378,375.307)" gradientUnits="userSpaceOnUse" id="_Linear27" x1="0" x2="1" y1="0" y2="0"><stop style="stop-color:rgb(220,234,255);stop-opacity:1" offset="0%"/><stop style="stop-color:rgb(255,255,235);stop-opacity:1" offset="100%"/></linearGradient>
        <linearGradient gradientTransform="matrix(-13.3491,-55.4555,100.385,-7.37441,428.378,375.307)" gradientUnits="userSpaceOnUse" id="_Linear28" x1="0" x2="1" y1="0" y2="0"><stop style="stop-color:rgb(220,234,255);stop-opacity:1" offset="0%"/><stop style="stop-color:rgb(255,255,235);stop-opacity:1" offset="100%"/></linearGradient>
        <linearGradient gradientTransform="matrix(-13.3491,-55.4555,100.385,-7.37441,428.378,375.307)" gradientUnits="userSpaceOnUse" id="_Linear29" x1="0" x2="1" y1="0" y2="0"><stop style="stop-color:rgb(220,234,255);stop-opacity:1" offset="0%"/><stop style="stop-color:rgb(255,255,235);stop-opacity:1" offset="100%"/></linearGradient>
        <linearGradient gradientTransform="matrix(-42.6192,-320.496,320.496,-42.6192,347.849,572.965)" gradientUnits="userSpaceOnUse" id="_Linear31" x1="0" x2="1" y1="0" y2="0"><stop style="stop-color:rgb(0,114,167);stop-opacity:1" offset="0%"/><stop style="stop-color:rgb(8,0,101);stop-opacity:1" offset="100%"/></linearGradient>
        <radialGradient cx="0" cy="0" gradientTransform="matrix(7.50764,112.339,-276.186,18.4576,292.027,425.187)" gradientUnits="userSpaceOnUse" id="_Radial32" r="1"><stop style="stop-color:rgb(0,31,53);stop-opacity:1" offset="0%"/><stop style="stop-color:rgb(52,52,92);stop-opacity:1" offset="100%"/></radialGradient>
        <linearGradient gradientTransform="matrix(4.36862,55.7957,-55.7957,4.36862,273.59,385.426)" gradientUnits="userSpaceOnUse" id="_Linear33" x1="0" x2="1" y1="0" y2="0"><stop style="stop-color:rgb(220,234,255);stop-opacity:1" offset="0%"/><stop style="stop-color:rgb(255,255,235);stop-opacity:1" offset="100%"/></linearGradient>
        <linearGradient gradientTransform="matrix(-13.3491,-55.4555,100.385,-7.37441,428.378,375.307)" gradientUnits="userSpaceOnUse" id="_Linear34" x1="0" x2="1" y1="0" y2="0"><stop style="stop-color:rgb(220,234,255);stop-opacity:1" offset="0%"/><stop style="stop-color:rgb(255,255,235);stop-opacity:1" offset="100%"/></linearGradient>
        <linearGradient gradientTransform="matrix(-13.3491,-55.4555,100.385,-7.37441,428.378,375.307)" gradientUnits="userSpaceOnUse" id="_Linear35" x1="0" x2="1" y1="0" y2="0"><stop style="stop-color:rgb(220,234,255);stop-opacity:1" offset="0%"/><stop style="stop-color:rgb(255,255,235);stop-opacity:1" offset="100%"/></linearGradient>
        <linearGradient gradientTransform="matrix(-13.3491,-55.4555,100.385,-7.37441,428.378,375.307)" gradientUnits="userSpaceOnUse" id="_Linear36" x1="0" x2="1" y1="0" y2="0"><stop style="stop-color:rgb(220,234,255);stop-opacity:1" offset="0%"/><stop style="stop-color:rgb(255,255,235);stop-opacity:1" offset="100%"/></linearGradient>
        <linearGradient gradientTransform="matrix(-13.3491,-55.4555,100.385,-7.37441,428.378,375.307)" gradientUnits="userSpaceOnUse" id="_Linear37" x1="0" x2="1" y1="0" y2="0"><stop style="stop-color:rgb(220,234,255);stop-opacity:1" offset="0%"/><stop style="stop-color:rgb(255,255,235);stop-opacity:1" offset="100%"/></linearGradient>
        <linearGradient gradientTransform="matrix(-13.3491,-55.4555,100.385,-7.37441,428.378,375.307)" gradientUnits="userSpaceOnUse" id="_Linear38" x1="0" x2="1" y1="0" y2="0"><stop style="stop-color:rgb(220,234,255);stop-opacity:1" offset="0%"/><stop style="stop-color:rgb(255,255,235);stop-opacity:1" offset="100%"/></linearGradient>
        <linearGradient gradientTransform="matrix(-13.3491,-55.4555,100.385,-7.37441,428.378,375.307)" gradientUnits="userSpaceOnUse" id="_Linear39" x1="0" x2="1" y1="0" y2="0"><stop style="stop-color:rgb(220,234,255);stop-opacity:1" offset="0%"/><stop style="stop-color:rgb(255,255,235);stop-opacity:1" offset="100%"/></linearGradient>
    </defs>
</svg>
